<svg xmlns="http://www.w3.org/2000/svg" width="720" height="300" viewBox="0 0 720 300"><title>_Монтажная область 1</title><path d="M0,301.05c4.51-38.84,13.13-59.19,20.3-70.64,6.78-10.82,9.66-9.53,21-25.12,17.81-24.54,15.19-34,26.67-45.66,9.93-10.11,12.79-3.94,42.55-14.84,13.9-5.09,14.63-6.93,22.77-9.7,22.07-7.51,35.7-.45,54.83,2.85,6.54,1.13,32.32-2.66,83.6-10.27,43-6.39,43.12-6.92,50.64-6.85,35,.31,39,11.75,74.31,15.41,4.69.49,29.46-1.76,78.81-6.28,50-4.58,53.56-4.92,62.33-1.71,25.81,9.44,33.74,26.42,53.64,19.41,15.61-5.5,20.41-19.36,33.86-14.84,12.95,4.35,14.75,19.28,28.47,22.26,14.92,3.24,19.88-12.89,27-5.14,10.37,11.34.69,46.92,14.08,72.49,5.41,10.32,10.65,11.52,16.48,28a139.37,139.37,0,0,1,6,24.54,167,167,0,0,1,1.87,26.11Z" style="fill:#16162c;stroke:#000;stroke-miterlimit:10"/><path d="M699.06,251.93c-32.46,3.26-73,4.57-129.77,1.33-67.57-3.85-133.36-12.75-239.29-10.57q-10.65.21-21.87.59c-58.58,2-88.66,5.93-109,9.27A625.33,625.33,0,0,0,39.56,301.1L0,303.67c41.41-22.84,108.6-53.58,199.16-68.5,20.31-3.35,50.39-7.31,109-9.28q16.14-.54,31.13-.76c100.55-1.48,164.45,7,230,10.75,18.41,1,35.11,1.62,50.38,1.8C640.22,249.27,676,240.25,699.06,251.93Z" style="fill:#ad8c57;stroke:#000;stroke-miterlimit:10"/><path d="M719.13,301h-221c-116.72,17-148,7.62-153.51-5-1.5-3.44-5.77-17.85-15.67-39-2.86-6.11-5.36-11-7-14.13a95.35,95.35,0,0,1,17.25-17.74l.52-.42c14.67-12,22.81-23.67,33.3-39,8-11.67,15.66-23,22.41-33.11,14.12-21.07,24.21-36.48,24.67-37.18v0c8.14-10.43,10.37-14.54,15-15,5.16-.5,7.58,4.12,15.7,9.28,8.86,5.65,15,5.86,24.25,8.56,18.63,5.43,31.93,15.62,38.53,20.7a75.1,75.1,0,0,1,7.52,6.53,50.26,50.26,0,0,1,5.32,6.22c6.76,9.37,6.71,16.55,19.27,25.77,23.36,17.14,42.81,6.47,54.94,24.26,7.48,11,1.74,15.93,9.28,27.12a27.92,27.92,0,0,0,9.7,8.84c20.55,11.59,56.36,2.57,79.39,14.25a35.3,35.3,0,0,1,10.75,8.24C715.64,266.81,721.41,278.6,719.13,301Z" style="fill:#060626"/><path d="M526.73,150.38a28.61,28.61,0,0,1-3.56,4.52c-.72.75-11.72,11.84-23.55,9.28-14.31-3.1-17.77-6.63-28.36-5.89-4,.28-20.85-1.66-24.26,1.43-15.36,13.9-31.66,2.35-51.26-8.44,12.87-19.2,22.39-33.7,24.32-36.65l.34-.53v0c8.13-10.43,10.37-14.54,15-15,5.16-.5,7.58,4.12,15.7,9.28,1.23.78,2.42,1.46,3.56,2.05,7.07,3.7,12.72,4.18,20.7,6.51,18.63,5.42,31.92,15.62,38.53,20.69A61.06,61.06,0,0,1,526.73,150.38Z" style="fill:#babad8"/><path d="M454.67,110.43c-.68.57-1.36,1.09-2,1.54-9.28,6.39-22.86,5.85-32.59,2.66l.34-.53v0c8.13-10.43,10.37-14.54,15-15,5.16-.5,7.58,4.12,15.7,9.28C452.34,109.16,453.53,109.84,454.67,110.43Z" style="fill:#fff;opacity:0.63"/></svg>